<?xml version="1.0" encoding="utf-8"?>
<!-- Generator: Adobe Illustrator 16.0.0, SVG Export Plug-In . SVG Version: 6.00 Build 0)  -->
<!DOCTYPE svg PUBLIC "-//W3C//DTD SVG 1.1//EN" "http://www.w3.org/Graphics/SVG/1.1/DTD/svg11.dtd">
<svg version="1.1" id="Capa_1" xmlns="http://www.w3.org/2000/svg" xmlns:xlink="http://www.w3.org/1999/xlink" x="0px" y="0px"
	 width="1024px" height="768px" viewBox="0 0 1024 768" enable-background="new 0 0 1024 768" xml:space="preserve">
<g>
	<defs>
		<rect id="SVGID_1_" y="35.986" width="1024" height="768"/>
	</defs>
	<clipPath id="SVGID_2_">
		<use xlink:href="#SVGID_1_"  overflow="visible"/>
	</clipPath>
	<path clip-path="url(#SVGID_2_)" d="M536.156,345.869c-0.763-0.071-1.556-0.131-2.387-0.177s-1.671-0.085-2.527-0.107
		c-0.853-0.024-1.637-0.037-2.347-0.037c-2.038,0-3.772,0.037-5.194,0.109c-1.425,0.07-2.897,0.201-4.413,0.39
		c-0.19,0.046-0.263-0.072-0.214-0.355c0.048-0.284,0.118-0.45,0.214-0.498c1.374-0.143,2.468-0.309,3.272-0.499
		c0.806-0.19,1.411-0.653,1.817-1.389c0.4-0.733,0.663-1.85,0.782-3.345c0.116-1.495,0.178-3.595,0.178-6.3V323.41h-26.688v10.251
		c0,2.611,0.046,4.662,0.144,6.158c0.093,1.495,0.328,2.623,0.711,3.383c0.379,0.758,0.984,1.254,1.815,1.493
		c0.829,0.238,1.957,0.404,3.379,0.499c0.094,0.048,0.166,0.214,0.214,0.498c0.046,0.283-0.048,0.401-0.284,0.355
		c-1.092-0.14-2.314-0.26-3.666-0.355c-1.352-0.096-2.788-0.144-4.306-0.144c-1.992,0-3.913,0.037-5.765,0.109
		c-1.849,0.07-3.536,0.201-5.051,0.39c-0.191,0.046-0.261-0.072-0.215-0.355c0.047-0.284,0.117-0.45,0.215-0.498
		c1.8-0.189,3.189-0.379,4.162-0.57c0.973-0.188,1.694-0.64,2.172-1.352c0.471-0.713,0.747-1.805,0.817-3.275
		c0.071-1.471,0.109-3.583,0.109-6.336v-21.356c0-2.752-0.038-4.876-0.109-6.371c-0.07-1.494-0.346-2.586-0.817-3.273
		c-0.478-0.688-1.199-1.129-2.172-1.318c-0.973-0.19-2.362-0.403-4.162-0.64c-0.098,0-0.168-0.143-0.215-0.428
		c-0.046-0.287,0.024-0.404,0.215-0.354c1.515,0.188,3.202,0.317,5.051,0.388c1.852,0.073,3.773,0.108,5.765,0.108
		c1.518,0,2.954-0.046,4.306-0.142c1.352-0.095,2.574-0.216,3.666-0.354c0.236-0.05,0.33,0.067,0.284,0.354
		c-0.048,0.285-0.12,0.428-0.214,0.428c-1.422,0.142-2.55,0.333-3.379,0.567c-0.831,0.24-1.436,0.738-1.815,1.495
		c-0.383,0.761-0.618,1.888-0.711,3.383c-0.098,1.494-0.144,3.548-0.144,6.157v9.61h26.688v-9.61c0-2.705-0.062-4.805-0.178-6.3
		c-0.119-1.494-0.382-2.608-0.782-3.344c-0.406-0.737-1.012-1.211-1.817-1.426c-0.805-0.213-1.898-0.39-3.272-0.532
		c-0.096,0-0.166-0.143-0.214-0.428c-0.049-0.287,0.023-0.404,0.214-0.354c1.516,0.188,2.988,0.317,4.413,0.388
		c1.422,0.073,3.156,0.108,5.194,0.108c0.71,0,1.494-0.01,2.347-0.035c0.856-0.024,1.696-0.06,2.527-0.107
		c0.831-0.048,1.624-0.095,2.387-0.143c0.758-0.047,1.423-0.117,1.991-0.211c0.189-0.05,0.26,0.067,0.213,0.354
		c-0.046,0.285-0.119,0.428-0.213,0.428c-1.85,0.142-3.273,0.333-4.27,0.567c-0.997,0.24-1.708,0.738-2.136,1.495
		c-0.427,0.761-0.675,1.877-0.746,3.348c-0.072,1.471-0.107,3.534-0.107,6.192v21.356c0,2.658,0.035,4.722,0.107,6.193
		c0.071,1.472,0.319,2.588,0.746,3.348c0.428,0.758,1.139,1.243,2.136,1.457c0.996,0.215,2.42,0.392,4.27,0.535
		c0.094,0.048,0.167,0.214,0.213,0.498c0.047,0.283-0.023,0.401-0.213,0.355C537.579,346,536.914,345.942,536.156,345.869"/>
	<path clip-path="url(#SVGID_2_)" d="M559.645,377.178c-0.76-0.069-1.556-0.131-2.386-0.177c-0.831-0.049-1.673-0.085-2.526-0.109
		c-0.855-0.022-1.636-0.033-2.347-0.033c-2.042,0-3.775,0.033-5.198,0.107c-1.424,0.07-2.896,0.2-4.413,0.391
		c-0.188,0.047-0.262-0.072-0.213-0.356c0.046-0.286,0.119-0.45,0.213-0.498c1.376-0.142,2.468-0.309,3.275-0.499
		c0.804-0.19,1.408-0.652,1.815-1.387c0.401-0.736,0.663-1.85,0.781-3.346c0.118-1.495,0.178-3.595,0.178-6.299v-39.81h-73.662
		v39.81c0,2.61,0.045,4.662,0.142,6.156c0.094,1.495,0.332,2.623,0.712,3.382c0.379,0.76,0.984,1.256,1.814,1.494
		c0.829,0.239,1.958,0.403,3.382,0.499c0.094,0.048,0.165,0.212,0.214,0.498c0.047,0.284-0.049,0.403-0.284,0.356
		c-1.094-0.143-2.313-0.263-3.666-0.356c-1.353-0.096-2.789-0.142-4.308-0.142c-1.992,0-3.915,0.033-5.763,0.107
		c-1.852,0.07-3.538,0.2-5.054,0.391c-0.191,0.047-0.263-0.072-0.215-0.356c0.046-0.286,0.118-0.45,0.215-0.498
		c1.801-0.191,3.189-0.38,4.163-0.57c0.973-0.189,1.696-0.64,2.17-1.352c0.474-0.711,0.748-1.804,0.818-3.274
		c0.072-1.471,0.108-3.582,0.108-6.335v-83.984c0-2.753-0.036-4.877-0.108-6.372c-0.07-1.495-0.344-2.587-0.818-3.275
		c-0.474-0.686-1.197-1.127-2.17-1.315c-0.974-0.191-2.362-0.404-4.163-0.643c-0.097,0-0.169-0.14-0.215-0.425
		c-0.048-0.288,0.024-0.404,0.215-0.354c1.516,0.188,3.202,0.317,5.054,0.39c1.848,0.071,3.771,0.106,5.763,0.106
		c1.519,0,2.955-0.046,4.308-0.141c1.353-0.095,2.572-0.215,3.666-0.354c0.235-0.049,0.331,0.067,0.284,0.354
		c-0.049,0.285-0.12,0.425-0.214,0.425c-1.424,0.144-2.553,0.333-3.382,0.57c-0.83,0.239-1.435,0.737-1.814,1.495
		c-0.38,0.76-0.618,1.886-0.712,3.381c-0.097,1.495-0.142,3.548-0.142,6.159v38.755h73.662v-38.755c0-2.705-0.06-4.807-0.178-6.301
		c-0.118-1.495-0.38-2.61-0.781-3.346c-0.407-0.734-1.012-1.209-1.815-1.422c-0.808-0.215-1.899-0.392-3.275-0.536
		c-0.094,0-0.167-0.14-0.213-0.425c-0.049-0.288,0.024-0.404,0.213-0.354c1.517,0.188,2.989,0.317,4.413,0.39
		c1.423,0.071,3.156,0.106,5.198,0.106c0.711,0,1.491-0.01,2.347-0.035c0.854-0.024,1.695-0.058,2.526-0.106
		c0.83-0.047,1.626-0.095,2.386-0.142c0.757-0.048,1.423-0.119,1.992-0.213c0.189-0.049,0.261,0.067,0.214,0.354
		c-0.048,0.285-0.119,0.425-0.214,0.425c-1.852,0.144-3.273,0.333-4.271,0.57c-0.997,0.239-1.708,0.737-2.135,1.495
		c-0.429,0.76-0.677,1.875-0.747,3.346c-0.072,1.471-0.109,3.536-0.109,6.194v83.984c0,2.657,0.037,4.72,0.109,6.193
		c0.07,1.469,0.318,2.586,0.747,3.345c0.427,0.76,1.138,1.246,2.135,1.458c0.997,0.213,2.419,0.393,4.271,0.535
		c0.095,0.048,0.166,0.212,0.214,0.498c0.047,0.284-0.024,0.403-0.214,0.356C561.067,377.309,560.401,377.251,559.645,377.178"/>
	<path clip-path="url(#SVGID_2_)" d="M385.229,442.357c-0.533-0.051-1.093-0.094-1.676-0.127s-1.176-0.057-1.775-0.074
		c-0.602-0.018-1.152-0.023-1.651-0.023c-1.437,0-2.654,0.023-3.655,0.074c-1,0.049-2.034,0.141-3.101,0.275
		c-0.135,0.029-0.184-0.053-0.152-0.252c0.034-0.201,0.084-0.316,0.152-0.35c0.968-0.1,1.733-0.217,2.302-0.35
		c0.567-0.133,0.991-0.459,1.275-0.979c0.282-0.516,0.466-1.299,0.552-2.35c0.082-1.051,0.124-2.527,0.124-4.43v-7.205h-18.765
		v7.205c0,1.834,0.034,3.277,0.099,4.33c0.067,1.051,0.234,1.844,0.501,2.375c0.266,0.535,0.691,0.887,1.276,1.053
		c0.584,0.166,1.376,0.285,2.378,0.35c0.066,0.033,0.115,0.148,0.148,0.35c0.035,0.199-0.033,0.281-0.2,0.252
		c-0.769-0.102-1.624-0.186-2.576-0.252c-0.951-0.066-1.961-0.098-3.027-0.098c-1.402,0-2.753,0.023-4.053,0.074
		c-1.302,0.049-2.486,0.141-3.552,0.275c-0.136,0.029-0.184-0.053-0.152-0.252c0.033-0.201,0.084-0.316,0.152-0.35
		c1.266-0.133,2.242-0.268,2.928-0.402c0.682-0.133,1.191-0.447,1.524-0.949c0.334-0.5,0.527-1.268,0.575-2.303
		c0.051-1.033,0.075-2.516,0.075-4.453v-15.012c0-1.934-0.024-3.426-0.075-4.475c-0.048-1.055-0.241-1.82-0.575-2.305
		c-0.333-0.482-0.842-0.793-1.524-0.926c-0.686-0.133-1.662-0.283-2.928-0.45c-0.068,0-0.119-0.101-0.152-0.3
		c-0.032-0.199,0.016-0.283,0.152-0.25c1.066,0.133,2.25,0.227,3.552,0.273c1.3,0.053,2.651,0.078,4.053,0.078
		c1.066,0,2.076-0.035,3.027-0.102c0.952-0.066,1.807-0.15,2.576-0.25c0.167-0.033,0.235,0.051,0.2,0.25
		c-0.033,0.199-0.082,0.3-0.148,0.3c-1.002,0.101-1.794,0.231-2.378,0.399c-0.585,0.17-1.01,0.519-1.276,1.052
		c-0.267,0.534-0.434,1.327-0.501,2.378c-0.065,1.05-0.099,2.494-0.099,4.326v6.756h18.765v-6.756c0-1.899-0.042-3.375-0.124-4.428
		c-0.086-1.051-0.27-1.832-0.552-2.352c-0.284-0.516-0.708-0.852-1.275-1.001c-0.569-0.149-1.334-0.274-2.302-0.375
		c-0.068,0-0.118-0.101-0.152-0.3c-0.032-0.199,0.017-0.283,0.152-0.25c1.067,0.133,2.101,0.227,3.101,0.273
		c1.001,0.053,2.218,0.078,3.655,0.078c0.499,0,1.049-0.01,1.651-0.025c0.599-0.02,1.192-0.043,1.775-0.076s1.143-0.066,1.676-0.1
		c0.534-0.033,1.003-0.084,1.403-0.15c0.133-0.033,0.182,0.051,0.15,0.25c-0.034,0.199-0.085,0.3-0.15,0.3
		c-1.302,0.101-2.304,0.231-3.004,0.399c-0.701,0.17-1.2,0.519-1.499,1.052c-0.302,0.534-0.477,1.317-0.528,2.353
		c-0.05,1.034-0.073,2.485-0.073,4.352v15.012c0,1.871,0.023,3.322,0.073,4.355c0.051,1.033,0.226,1.818,0.528,2.35
		c0.299,0.535,0.798,0.879,1.499,1.025c0.7,0.152,1.702,0.277,3.004,0.377c0.065,0.033,0.116,0.148,0.15,0.35
		c0.032,0.199-0.017,0.281-0.15,0.252C386.232,442.449,385.764,442.408,385.229,442.357"/>
	<path clip-path="url(#SVGID_2_)" d="M426.138,439.258c-0.184,0.947-0.357,1.691-0.525,2.223c-0.134,0.4-0.275,0.652-0.425,0.75
		c-0.152,0.1-0.411,0.152-0.777,0.152c-0.901,0-2.092-0.043-3.574-0.125c-1.487-0.084-3.131-0.125-4.93-0.125
		c-2.471,0-4.881,0.023-7.232,0.072c-2.353,0.053-4.431,0.143-6.23,0.277c-0.166,0.031-0.234-0.051-0.203-0.252
		c0.037-0.201,0.084-0.316,0.152-0.35c1.267-0.133,2.252-0.268,2.953-0.4c0.7-0.133,1.21-0.449,1.527-0.951
		c0.316-0.498,0.507-1.266,0.575-2.299c0.066-1.029,0.099-2.514,0.099-4.445v-14.986c0-1.932-0.033-3.422-0.099-4.469
		c-0.068-1.051-0.259-1.816-0.575-2.301c-0.317-0.482-0.827-0.789-1.527-0.924c-0.701-0.133-1.686-0.283-2.953-0.449
		c-0.068,0-0.115-0.101-0.152-0.299c-0.031-0.201,0.037-0.285,0.203-0.25c1.799,0.133,3.836,0.223,6.104,0.274
		c2.27,0.049,4.654,0.073,7.157,0.073c1.8,0,3.51-0.03,5.131-0.098c1.616-0.068,3.091-0.15,4.427-0.25
		c-0.202,0.681-0.302,1.564-0.302,2.651c0,0.267,0.008,0.599,0.027,1c0.014,0.401,0.041,0.7,0.073,0.901
		c0,0.066-0.1,0.101-0.3,0.101c-0.198,0-0.301-0.034-0.301-0.101c-0.099-0.568-0.267-1.043-0.499-1.428
		c-0.234-0.383-0.624-0.69-1.177-0.924c-0.55-0.234-1.316-0.402-2.301-0.5c-0.984-0.103-2.294-0.15-3.928-0.15h-4.803
		c-0.201,1.268-0.302,3.553-0.302,6.854v6.604h5.205c1.368,0,2.409-0.031,3.128-0.1c0.714-0.066,1.225-0.174,1.527-0.326
		c0.298-0.148,0.483-0.342,0.548-0.574c0.068-0.234,0.134-0.516,0.202-0.852c0.032-0.033,0.149-0.057,0.349-0.074
		c0.201-0.016,0.283,0.008,0.25,0.074c-0.1,0.369-0.183,0.844-0.25,1.426c-0.067,0.584-0.101,1.16-0.101,1.729
		c0,0.266,0.01,0.615,0.026,1.051c0.015,0.434,0.041,0.75,0.075,0.947c0.034,0.068-0.048,0.102-0.249,0.102
		s-0.302-0.033-0.302-0.102c-0.065-0.398-0.157-0.74-0.273-1.023c-0.117-0.283-0.351-0.527-0.703-0.727
		c-0.349-0.199-0.85-0.342-1.5-0.426c-0.651-0.084-1.559-0.125-2.727-0.125h-5.205v7.455c0,1.67,0.059,2.986,0.177,3.955
		c0.115,0.967,0.299,1.703,0.55,2.201c0.25,0.5,0.583,0.82,1,0.951c0.417,0.135,0.909,0.201,1.476,0.201h2.552
		c1.902,0,3.395-0.059,4.479-0.174c1.086-0.117,1.911-0.328,2.478-0.627c0.565-0.299,0.967-0.715,1.199-1.248
		c0.234-0.533,0.433-1.215,0.602-2.049c0.031-0.031,0.141-0.043,0.322-0.025c0.185,0.02,0.277,0.061,0.277,0.125
		C426.463,437.518,426.323,438.307,426.138,439.258"/>
	<path clip-path="url(#SVGID_2_)" d="M463.067,415.461c-0.518-1.133-1.209-2.026-2.076-2.678c-0.869-0.651-1.862-1.101-2.979-1.352
		c-1.117-0.25-2.292-0.375-3.528-0.375c-0.4,0-0.766,0.01-1.101,0.025c-0.332,0.018-0.718,0.043-1.151,0.074
		c-0.3,1.002-0.448,3.389-0.448,7.156v8.457c0.398,0.033,0.715,0.051,0.949,0.051h1.1c1.834,0,3.395-0.168,4.68-0.502
		c1.283-0.332,2.318-0.807,3.104-1.426c0.783-0.617,1.349-1.359,1.699-2.227c0.35-0.867,0.525-1.836,0.525-2.902
		C463.841,418.029,463.583,416.595,463.067,415.461 M477.101,442.932c0.035,0.201-0.033,0.303-0.201,0.303
		c-2.833,0-5.318-0.453-7.453-1.354c-2.138-0.9-3.978-2.084-5.53-3.553c-1.552-1.469-2.827-3.154-3.827-5.053
		c-1.002-1.904-1.77-3.838-2.304-5.805c-0.599,0.133-1.268,0.223-2,0.273c-0.736,0.051-1.37,0.076-1.902,0.076h-1.201
		c-0.201,0-0.501-0.033-0.899-0.102v6.055c0,1.871,0.024,3.32,0.074,4.355c0.049,1.033,0.226,1.818,0.524,2.352
		c0.301,0.533,0.768,0.877,1.4,1.023c0.634,0.152,1.536,0.277,2.706,0.377c0.064,0.033,0.115,0.148,0.148,0.35
		c0.033,0.201-0.033,0.281-0.201,0.252c-0.768-0.102-1.703-0.186-2.801-0.252c-1.101-0.066-2.187-0.1-3.254-0.1
		c-1.434,0-2.727,0.025-3.877,0.076c-1.152,0.049-2.245,0.141-3.278,0.275c-0.133,0.029-0.192-0.051-0.174-0.252
		c0.014-0.201,0.056-0.316,0.123-0.35c1.136-0.1,2.019-0.225,2.655-0.377c0.631-0.146,1.101-0.473,1.399-0.975
		c0.3-0.5,0.484-1.268,0.552-2.301c0.066-1.035,0.098-2.518,0.098-4.455v-15.061c0-1.434-0.024-2.643-0.074-3.629
		c-0.05-0.982-0.176-1.758-0.375-2.325c-0.201-0.567-0.499-0.976-0.901-1.226c-0.4-0.252-0.951-0.377-1.651-0.377
		c-0.267,0-0.551,0.02-0.85,0.051c-0.302,0.033-0.637,0.084-1.003,0.149c-0.067,0-0.124-0.081-0.173-0.249
		c-0.05-0.168-0.011-0.283,0.125-0.351c0.5-0.166,1.167-0.302,2-0.4c0.832-0.101,1.778-0.183,2.828-0.249
		c1.05-0.066,2.202-0.109,3.453-0.128c1.25-0.013,2.543-0.024,3.878-0.024c1.735,0,3.378,0.143,4.928,0.427
		c1.554,0.282,2.903,0.726,4.055,1.325c1.15,0.601,2.06,1.387,2.727,2.352c0.665,0.969,1,2.137,1,3.503
		c0,0.7-0.117,1.46-0.349,2.277c-0.234,0.819-0.618,1.636-1.152,2.45c-0.533,0.818-1.234,1.594-2.101,2.33
		c-0.87,0.73-1.938,1.367-3.204,1.9c0.634,1.834,1.568,3.701,2.802,5.604c1.234,1.902,2.585,3.629,4.053,5.178
		c1.47,1.553,2.994,2.828,4.579,3.83c1.585,1,3.078,1.5,4.48,1.5C477.019,442.631,477.068,442.732,477.101,442.932"/>
	<path clip-path="url(#SVGID_2_)" d="M497.937,442.23c-1.118-0.066-2.193-0.098-3.226-0.098c-1.434,0-2.726,0.023-3.877,0.072
		c-1.147,0.053-2.242,0.143-3.274,0.275c-0.166,0.033-0.234-0.049-0.2-0.25c0.034-0.201,0.083-0.316,0.149-0.35
		c1.1-0.1,1.966-0.225,2.602-0.375c0.633-0.15,1.107-0.475,1.423-0.977c0.319-0.5,0.51-1.266,0.578-2.301
		c0.065-1.035,0.099-2.518,0.099-4.455v-15.01c0-1.935-0.034-3.42-0.099-4.455c-0.068-1.031-0.259-1.808-0.578-2.326
		c-0.316-0.517-0.79-0.842-1.423-0.977c-0.636-0.132-1.502-0.266-2.602-0.398c-0.066,0-0.115-0.101-0.149-0.301
		c-0.034-0.199,0.034-0.283,0.2-0.25c1.032,0.133,2.127,0.225,3.274,0.273c1.151,0.052,2.443,0.076,3.877,0.076
		c1.033,0,2.108-0.033,3.226-0.1s2.059-0.15,2.825-0.25c0.132-0.033,0.183,0.051,0.151,0.25c-0.036,0.2-0.085,0.301-0.151,0.301
		c-1.167,0.099-2.061,0.231-2.675,0.398c-0.619,0.169-1.076,0.52-1.376,1.051c-0.299,0.536-0.477,1.328-0.524,2.379
		c-0.052,1.051-0.076,2.494-0.076,4.328v15.01c0,1.871,0.024,3.322,0.076,4.355c0.047,1.033,0.225,1.818,0.524,2.352
		c0.3,0.533,0.757,0.875,1.376,1.025c0.614,0.15,1.508,0.275,2.675,0.375c0.066,0.033,0.115,0.148,0.151,0.35
		c0.032,0.201-0.019,0.283-0.151,0.25C499.996,442.383,499.055,442.299,497.937,442.23"/>
	<path clip-path="url(#SVGID_2_)" d="M548.133,410.557c-0.082,0.666-0.125,1.434-0.125,2.301c0,0.4,0.009,0.86,0.025,1.377
		c0.018,0.517,0.058,0.943,0.125,1.276c0,0.068-0.099,0.093-0.3,0.073c-0.199-0.014-0.298-0.041-0.298-0.073
		c-0.102-0.567-0.253-1.067-0.45-1.501c-0.201-0.434-0.571-0.801-1.104-1.1c-0.533-0.303-1.284-0.527-2.251-0.678
		c-0.969-0.15-2.269-0.225-3.901-0.225h-5.304v21.766c0,1.871,0.025,3.322,0.074,4.355c0.051,1.033,0.226,1.818,0.526,2.352
		c0.3,0.533,0.764,0.877,1.401,1.025c0.633,0.15,1.531,0.275,2.699,0.375c0.068,0.033,0.116,0.148,0.152,0.35
		c0.033,0.201-0.036,0.283-0.201,0.252c-0.766-0.1-1.7-0.184-2.801-0.252c-1.102-0.066-2.167-0.098-3.202-0.098
		c-1.436,0-2.729,0.023-3.877,0.072c-1.151,0.053-2.261,0.143-3.327,0.277c-0.134,0.031-0.185-0.051-0.152-0.252
		c0.035-0.201,0.085-0.316,0.152-0.35c1.1-0.1,1.967-0.225,2.601-0.375c0.634-0.148,1.101-0.475,1.401-0.977
		c0.301-0.5,0.483-1.266,0.549-2.301c0.068-1.035,0.103-2.518,0.103-4.455v-21.766h-5.504c-1.568,0-2.835,0.074-3.804,0.225
		c-0.968,0.15-1.733,0.367-2.302,0.65c-0.566,0.283-0.976,0.645-1.225,1.077c-0.248,0.435-0.443,0.951-0.576,1.551
		c0,0.032-0.099,0.06-0.3,0.073c-0.199,0.02-0.283-0.005-0.251-0.073c0.103-0.534,0.168-1.183,0.201-1.95
		c0.034-0.768,0.05-1.518,0.05-2.252c0-0.9-0.083-1.767-0.251-2.603c0-0.067,0.103-0.093,0.302-0.076
		c0.197,0.017,0.3,0.044,0.3,0.076c0.099,0.433,0.225,0.776,0.374,1.024c0.151,0.248,0.477,0.443,0.976,0.576
		c0.502,0.135,1.261,0.217,2.277,0.25c1.017,0.034,2.427,0.051,4.229,0.051h14.709c1.8,0,3.219-0.017,4.252-0.051
		c1.033-0.033,1.819-0.115,2.351-0.25c0.534-0.133,0.884-0.328,1.051-0.576c0.168-0.248,0.302-0.592,0.399-1.024
		c0-0.032,0.101-0.06,0.302-0.076c0.199-0.017,0.283,0.009,0.25,0.076C548.326,409.273,548.219,409.889,548.133,410.557"/>
	<path clip-path="url(#SVGID_2_)" d="M572.873,415.261l-5.701,13.407h10.455L572.873,415.261z M591.084,442.23
		c0.034,0.201-0.032,0.283-0.199,0.25c-0.769-0.098-1.636-0.182-2.601-0.25c-0.969-0.066-1.97-0.098-3.003-0.098
		c-1.433,0-2.777,0.023-4.029,0.072c-1.248,0.053-2.391,0.143-3.424,0.275c-0.135,0.033-0.192-0.049-0.176-0.25
		c0.016-0.201,0.057-0.316,0.125-0.35c1.199-0.133,2.093-0.283,2.678-0.449c0.581-0.166,0.874-0.602,0.874-1.303
		c0-0.768-0.192-1.701-0.575-2.805c-0.383-1.098-0.809-2.283-1.276-3.551l-1.499-4.104h-11.257l-1.752,4.104
		c-0.633,1.502-1.15,2.76-1.548,3.779c-0.401,1.018-0.603,1.875-0.603,2.576c0,0.604,0.26,1.02,0.774,1.252
		c0.519,0.232,1.36,0.4,2.527,0.5c0.066,0.033,0.117,0.148,0.151,0.35c0.031,0.201-0.019,0.283-0.151,0.25
		c-0.769-0.098-1.482-0.182-2.151-0.25c-0.666-0.066-1.517-0.098-2.552-0.098c-0.7,0-1.26,0.006-1.676,0.023
		c-0.418,0.018-0.783,0.033-1.099,0.049c-0.319,0.02-0.635,0.053-0.951,0.102c-0.319,0.049-0.725,0.105-1.228,0.174
		c-0.131,0.033-0.189-0.049-0.174-0.25c0.017-0.201,0.059-0.316,0.125-0.35c0.832-0.064,1.56-0.26,2.177-0.574
		c0.616-0.316,1.182-0.793,1.7-1.428c0.515-0.635,1.034-1.451,1.553-2.451c0.515-1.002,1.074-2.221,1.674-3.654l10.556-24.168
		c0.066-0.101,0.167-0.149,0.302-0.149c0.133,0,0.231,0.049,0.299,0.149l9.006,24.168c0.566,1.537,1.065,2.811,1.502,3.828
		c0.429,1.018,0.906,1.826,1.423,2.428c0.517,0.6,1.107,1.043,1.777,1.326c0.665,0.283,1.516,0.461,2.551,0.525
		C590.999,441.914,591.052,442.029,591.084,442.23"/>
	<path clip-path="url(#SVGID_2_)" d="M634.104,429.121c-0.62,0.199-1.076,0.559-1.378,1.074c-0.299,0.52-0.476,1.26-0.524,2.229
		c-0.05,0.967-0.074,2.268-0.074,3.904c0,0.768,0.031,1.441,0.1,2.023c0.068,0.586,0.232,1.012,0.499,1.277
		c-1.967,1.104-3.896,1.959-5.778,2.578c-1.886,0.615-3.996,0.926-6.33,0.926c-2.77,0-5.246-0.443-7.431-1.328
		c-2.187-0.883-4.029-2.066-5.53-3.551c-1.5-1.486-2.651-3.201-3.453-5.154c-0.801-1.953-1.2-3.996-1.2-6.129
		c0-2.07,0.451-4.146,1.351-6.23c0.901-2.087,2.168-3.97,3.805-5.656c1.633-1.684,3.561-3.051,5.778-4.103
		c2.217-1.052,4.662-1.576,7.332-1.576c1.133,0,2.277,0.119,3.427,0.351c1.15,0.232,2.209,0.518,3.178,0.851
		c0.968,0.334,1.8,0.659,2.502,0.976c0.699,0.317,1.166,0.576,1.402,0.776c0.1,0.067,0.172,0.308,0.225,0.724
		c0.051,0.42,0.092,0.944,0.125,1.577c0.031,0.636,0.041,1.326,0.024,2.076c-0.017,0.752-0.044,1.509-0.075,2.276
		c0,0.101-0.101,0.15-0.299,0.15c-0.171,0-0.251-0.031-0.251-0.099c-0.067-1-0.384-2.011-0.951-3.028
		c-0.567-1.017-1.344-1.934-2.325-2.752c-0.986-0.816-2.16-1.477-3.527-1.975c-1.37-0.502-2.904-0.752-4.604-0.752
		c-1.868,0-3.587,0.324-5.155,0.976c-1.569,0.651-2.937,1.603-4.103,2.853c-1.169,1.252-2.078,2.777-2.729,4.578
		c-0.649,1.801-0.976,3.854-0.976,6.156c0,2.768,0.392,5.201,1.175,7.305c0.783,2.1,1.828,3.861,3.128,5.281
		c1.301,1.416,2.784,2.482,4.456,3.199c1.665,0.717,3.384,1.078,5.151,1.078c1.335,0,2.437-0.102,3.305-0.301
		c0.866-0.203,1.551-0.441,2.05-0.727c0.501-0.281,0.859-0.576,1.076-0.875s0.358-0.551,0.427-0.75
		c0.098-0.334,0.174-0.818,0.224-1.453c0.05-0.633,0.075-1.232,0.075-1.801c0-1.635-0.041-2.93-0.125-3.879
		c-0.084-0.951-0.311-1.666-0.675-2.15c-0.368-0.484-0.928-0.809-1.677-0.975c-0.75-0.168-1.792-0.301-3.129-0.404
		c-0.067,0-0.117-0.105-0.149-0.322c-0.033-0.217,0.032-0.309,0.2-0.273c1.033,0.166,2.277,0.266,3.729,0.299
		c1.45,0.031,2.893,0.047,4.328,0.047c1.033,0,2.108-0.031,3.228-0.098c1.117-0.066,2.06-0.15,2.826-0.248
		c0.135-0.035,0.183,0.057,0.152,0.273c-0.036,0.217-0.085,0.322-0.152,0.322C635.612,428.771,634.72,428.922,634.104,429.121"/>
	<path clip-path="url(#SVGID_2_)" d="M673.883,439.258c-0.183,0.947-0.356,1.691-0.523,2.223c-0.135,0.4-0.275,0.652-0.426,0.75
		c-0.152,0.1-0.409,0.152-0.776,0.152c-0.902,0-2.093-0.043-3.577-0.125c-1.486-0.084-3.127-0.125-4.929-0.125
		c-2.47,0-4.88,0.023-7.232,0.072c-2.35,0.053-4.428,0.143-6.229,0.277c-0.166,0.031-0.234-0.051-0.201-0.252
		c0.035-0.201,0.082-0.316,0.15-0.35c1.267-0.133,2.253-0.268,2.952-0.4c0.7-0.133,1.209-0.449,1.525-0.951
		c0.318-0.498,0.509-1.266,0.577-2.299c0.068-1.029,0.1-2.514,0.1-4.445v-14.986c0-1.932-0.031-3.422-0.1-4.469
		c-0.068-1.051-0.259-1.816-0.577-2.301c-0.316-0.482-0.825-0.789-1.525-0.924c-0.699-0.133-1.686-0.283-2.952-0.449
		c-0.068,0-0.115-0.101-0.15-0.299c-0.033-0.201,0.035-0.285,0.201-0.25c1.801,0.133,3.836,0.223,6.104,0.274
		c2.27,0.049,4.652,0.073,7.156,0.073c1.802,0,3.51-0.03,5.129-0.098c1.618-0.068,3.094-0.15,4.43-0.25
		c-0.202,0.681-0.301,1.564-0.301,2.651c0,0.267,0.005,0.599,0.024,1c0.017,0.401,0.042,0.7,0.074,0.901
		c0,0.066-0.099,0.101-0.301,0.101c-0.198,0-0.3-0.034-0.3-0.101c-0.1-0.568-0.266-1.043-0.5-1.428
		c-0.233-0.383-0.625-0.69-1.176-0.924c-0.549-0.234-1.317-0.402-2.301-0.5c-0.985-0.103-2.295-0.15-3.927-0.15h-4.806
		c-0.199,1.268-0.3,3.553-0.3,6.854v6.604h5.203c1.368,0,2.411-0.031,3.128-0.1c0.715-0.066,1.225-0.174,1.527-0.326
		c0.3-0.148,0.482-0.342,0.548-0.574c0.067-0.234,0.134-0.516,0.201-0.852c0.034-0.033,0.15-0.057,0.35-0.074
		c0.201-0.016,0.285,0.008,0.25,0.074c-0.098,0.369-0.183,0.844-0.25,1.426c-0.067,0.584-0.099,1.16-0.099,1.729
		c0,0.266,0.008,0.615,0.024,1.051c0.017,0.434,0.04,0.75,0.074,0.947c0.034,0.068-0.048,0.102-0.249,0.102
		c-0.202,0-0.302-0.033-0.302-0.102c-0.065-0.398-0.156-0.74-0.273-1.023s-0.351-0.527-0.702-0.727
		c-0.35-0.199-0.85-0.342-1.501-0.426c-0.65-0.084-1.559-0.125-2.727-0.125h-5.203v7.455c0,1.67,0.057,2.986,0.175,3.955
		c0.115,0.967,0.299,1.703,0.55,2.201c0.25,0.5,0.583,0.82,1,0.951c0.419,0.135,0.907,0.201,1.477,0.201h2.553
		c1.901,0,3.396-0.059,4.48-0.174c1.082-0.117,1.906-0.328,2.476-0.627c0.565-0.299,0.965-0.715,1.201-1.248
		c0.231-0.533,0.431-1.215,0.6-2.049c0.032-0.031,0.142-0.043,0.324-0.025c0.186,0.02,0.275,0.061,0.275,0.125
		C674.209,437.518,674.068,438.307,673.883,439.258"/>
</g>
<g>
	<defs>
		<path id="SVGID_3_" d="M302.576,381.18c0-115.66,93.761-209.423,209.424-209.423c115.66,0,209.423,93.763,209.423,209.423
			c0,115.664-93.763,209.426-209.423,209.426C396.337,590.605,302.576,496.844,302.576,381.18 M245.615,381.18
			c0,140.99,109.535,256.396,248.145,265.773h36.48c138.608-9.377,248.146-124.783,248.146-265.773
			c0-147.121-119.267-266.385-266.387-266.385C364.878,114.795,245.615,234.059,245.615,381.18"/>
	</defs>
	<clipPath id="SVGID_4_">
		<use xlink:href="#SVGID_3_"  overflow="visible"/>
	</clipPath>
	<path clip-path="url(#SVGID_4_)" fill="#CFA151" d="M511.999-69.557c-4.571,7.783-32.736,56.906-60.565,131.275
		c-27.916,74.599-61.194,190.576-61.194,319.461c0,128.902,33.284,244.895,61.208,319.5
		c27.828,74.355,55.978,123.455,60.551,131.242c4.571-7.785,32.736-56.91,60.567-131.277
		c27.915-74.598,61.195-190.576,61.195-319.465c0-128.901-33.286-244.891-61.209-319.497
		C544.724-12.672,516.571-61.773,511.999-69.557 M511.999,834.842l-0.642-1.061c-0.306-0.506-31.013-51.611-61.316-132.576
		c-27.965-74.721-61.302-190.9-61.302-320.025s33.337-245.302,61.302-320.023c30.303-80.963,61.01-132.067,61.316-132.574
		l0.642-1.062l0.642,1.062c0.306,0.507,31.015,51.611,61.315,132.574c27.968,74.721,61.306,190.898,61.306,320.023
		s-33.338,245.305-61.306,320.025c-30.301,80.965-61.01,132.07-61.315,132.576L511.999,834.842z"/>
	<path clip-path="url(#SVGID_4_)" fill="#CFA151" d="M395.339-54.2c-2.402,8.708-16.893,63.446-24.526,142.477
		c-7.657,79.283-9.782,199.921,23.578,324.415c18.414,68.725,57.964,175.307,141.811,292.775
		c46.124,64.619,86.024,104.76,92.455,111.096c2.399-8.703,16.892-63.441,24.526-142.479c7.659-79.281,9.787-199.922-23.57-324.416
		c-18.413-68.716-57.96-175.282-141.794-292.74C441.69-7.7,401.773-47.857,395.339-54.2 M629.412,819.383l-0.895-0.859
		c-0.427-0.408-43.314-41.824-93.536-112.184c-46.354-64.938-108.619-168.529-142.042-293.259
		c-18.447-68.844-37.519-181.108-23.617-324.986c8.314-86.044,24.75-143.357,24.914-143.924l0.346-1.191l0.896,0.858
		c0.425,0.411,43.315,41.826,93.537,112.188c46.355,64.938,108.625,168.529,142.047,293.253
		c18.447,68.844,37.516,181.11,23.61,324.989c-8.315,86.045-24.752,143.355-24.916,143.926L629.412,819.383z"/>
	<path clip-path="url(#SVGID_4_)" fill="#CFA151" d="M286.63-9.172c-0.067,9.027,0.104,65.652,13.187,143.973
		c13.124,78.561,42.294,195.641,106.739,307.258c64.443,111.619,151.252,195.422,212.726,246.068
		c61.285,50.49,110.237,78.949,118.087,83.406c0.066-9.033-0.104-65.658-13.184-143.971
		c-13.121-78.564-42.293-195.645-106.734-307.264c-64.453-111.632-151.273-195.44-212.76-246.09
		C343.414,23.731,294.481-4.714,286.63-9.172 M738.829,774.063l-1.085-0.598c-0.52-0.285-52.665-29.189-119.386-84.156
		c-61.58-50.73-148.539-134.674-213.101-246.5c-64.565-111.825-93.784-229.106-106.925-307.8
		c-14.241-85.265-13.2-144.878-13.188-145.471l0.026-1.239l1.087,0.598c0.518,0.286,52.665,29.19,119.388,84.154
		c61.582,50.729,148.542,134.673,213.103,246.498c64.565,111.826,93.782,229.107,106.924,307.805
		c14.238,85.264,13.195,144.877,13.185,145.469L738.829,774.063z"/>
	<path clip-path="url(#SVGID_4_)" fill="#CFA151" d="M193.28,62.461c2.275,8.743,17.096,63.391,50.001,135.651
		c33.011,72.487,91.491,178.025,182.625,269.159c91.14,91.139,196.679,149.617,269.168,182.629
		c72.256,32.906,126.904,47.729,135.646,50.002c-2.274-8.742-17.093-63.393-49.997-135.654
		c-33.007-72.488-91.483-178.029-182.618-269.167c-91.138-91.135-196.681-149.614-269.17-182.622
		C256.672,79.554,202.021,64.735,193.28,62.461 M832.785,701.967l-1.202-0.297c-0.577-0.141-58.423-14.566-137.098-50.391
		c-72.61-33.061-178.331-91.639-269.64-182.947C333.542,377.03,274.963,271.309,241.902,198.7
		c-35.825-78.675-50.25-136.525-50.39-137.1l-0.296-1.204l1.202,0.297c0.575,0.141,58.427,14.562,137.105,50.385
		c72.612,33.06,178.336,91.637,269.642,182.943c91.305,91.306,149.879,197.028,182.94,269.639
		c35.82,78.676,50.243,136.527,50.384,137.104L832.785,701.967z"/>
	<path clip-path="url(#SVGID_4_)" fill="#CFA151" d="M121.648,155.809c4.454,7.847,32.915,56.801,83.408,118.088
		c50.646,61.475,134.448,148.285,246.066,212.724c84.353,48.701,181.329,83.482,288.23,103.381
		c82.56,15.365,143.849,16.559,160.666,16.559c0.971,0,1.751-0.002,2.333-0.008c-4.453-7.846-32.914-56.803-83.403-118.094
		c-50.646-61.473-134.447-148.284-246.065-212.729c-84.341-48.696-181.305-83.473-288.197-103.37
		c-82.559-15.366-143.865-16.558-160.69-16.558C123.02,155.802,122.233,155.804,121.648,155.809 M900.019,608.063
		c-16.85,0-78.255-1.197-160.938-16.584c-107.07-19.932-204.207-54.771-288.709-103.559
		c-111.825-64.561-195.769-151.518-246.498-213.097c-54.965-66.721-83.87-118.867-84.156-119.385l-0.597-1.089l1.239-0.024
		c0,0,1.25-0.025,3.637-0.025c16.856,0,78.28,1.196,160.965,16.585c107.059,19.926,204.183,54.765,288.673,103.546
		C685.46,338.995,769.402,425.955,820.13,487.535c54.965,66.725,83.868,118.871,84.152,119.389l0.597,1.09l-1.238,0.023
		C903.641,608.037,902.398,608.063,900.019,608.063"/>
	<path clip-path="url(#SVGID_4_)" fill="#CFA151" d="M76.621,264.525c6.341,6.434,46.5,46.35,111.126,92.477
		c64.832,46.271,168.244,108.433,292.74,141.789c70.264,18.828,146.218,28.373,225.751,28.373
		c130.389,0,229.171-26.025,241.142-29.318c-6.343-6.434-46.501-46.352-111.127-92.479
		c-64.829-46.274-168.241-108.436-292.731-141.795c-70.26-18.827-146.209-28.374-225.739-28.374
		C187.394,235.198,88.594,261.231,76.621,264.525 M706.238,528.664c-79.664,0-155.75-9.563-226.141-28.422
		c-68.842-18.445-175.602-58.063-293.252-142.041c-70.362-50.222-111.777-93.11-112.187-93.537l-0.857-0.896l1.189-0.344
		c1.025-0.299,104.071-29.726,242.792-29.726c79.661,0,155.742,9.562,226.127,28.422c68.841,18.448,175.597,58.066,293.247,142.047
		c70.362,50.223,111.775,93.113,112.186,93.539l0.857,0.896l-1.189,0.346C947.987,499.246,844.959,528.664,706.238,528.664"/>
	<path clip-path="url(#SVGID_4_)" fill="#CFA151" d="M61.262,381.182c7.783,4.571,56.907,32.736,131.275,60.566
		c74.598,27.918,190.576,61.193,319.462,61.193c128.891,0,244.87-33.275,319.467-61.193c74.361-27.826,123.482-55.99,131.272-60.564
		c-7.783-4.57-56.904-32.734-131.272-60.566c-74.599-27.915-190.576-61.195-319.461-61.198
		c-128.903,0-244.897,33.286-319.503,61.211C118.146,348.457,69.045,376.611,61.262,381.182 M511.999,504.441
		c-129.125,0.002-245.301-33.334-320.023-61.301c-80.964-30.301-132.067-61.01-132.574-61.315l-1.062-0.643l1.062-0.641
		c0.507-0.307,51.61-31.016,132.574-61.318c74.723-27.964,190.901-61.302,320.029-61.302c129.124,0.003,245.3,33.341,320.021,61.307
		c80.962,30.301,132.064,61.008,132.573,61.314l1.062,0.642l-1.062,0.641c-0.509,0.307-51.611,31.015-132.572,61.315
		C757.305,471.105,641.129,504.441,511.999,504.441"/>
	<path clip-path="url(#SVGID_4_)" fill="#CFA151" d="M76.618,497.84c11.971,3.295,110.744,29.32,241.151,29.32
		c79.533,0,155.483-9.545,225.741-28.371c68.727-18.414,175.309-57.967,292.777-141.812c64.62-46.122,104.757-86.021,111.097-92.452
		c-11.975-3.294-110.763-29.324-241.167-29.324c-79.527,0-155.472,9.543-225.726,28.367
		c-68.725,18.414-175.305,57.965-292.775,141.814C123.096,451.508,82.956,491.408,76.618,497.84 M317.769,528.662
		c-138.74,0-241.757-29.422-242.781-29.721l-1.19-0.346l0.858-0.893c0.409-0.428,41.826-43.318,112.188-93.542
		c64.938-46.353,168.53-108.624,293.257-142.044c70.382-18.856,146.458-28.417,226.116-28.417
		c138.737,0,241.773,29.425,242.798,29.724l1.188,0.344l-0.856,0.897c-0.41,0.426-41.824,43.311-112.186,93.533
		C772.221,404.551,668.63,466.816,543.9,500.24C473.513,519.098,397.433,528.662,317.769,528.662"/>
	<path clip-path="url(#SVGID_4_)" fill="#CFA151" d="M121.646,606.551c0.581,0.006,1.363,0.008,2.338,0.008
		c16.822,0,78.127-1.193,160.695-16.563c106.895-19.895,203.858-54.674,288.197-103.367
		C684.5,422.182,768.303,335.374,818.949,273.9c50.492-61.288,78.952-110.243,83.405-118.088c-0.584-0.005-1.365-0.01-2.342-0.01
		c-16.821,0-78.122,1.195-160.688,16.563c-106.892,19.896-203.855,54.672-288.2,103.363
		C339.505,340.172,255.7,426.982,205.053,488.459C154.559,549.75,126.097,598.707,121.646,606.551 M123.983,608.061
		c-2.389,0-3.629-0.025-3.629-0.025l-1.237-0.025l0.595-1.088c0.286-0.518,29.192-52.664,84.16-119.391
		c50.73-61.58,134.675-148.54,246.502-213.101c84.491-48.777,181.616-83.613,288.674-103.541
		c82.692-15.39,144.11-16.586,160.964-16.586c2.389,0,3.632,0.025,3.632,0.025l1.238,0.025l-0.598,1.086
		c-0.284,0.52-29.189,52.664-84.156,119.387c-50.728,61.577-134.674,148.535-246.505,213.102
		c-84.486,48.779-181.607,83.617-288.67,103.545C202.258,606.863,140.838,608.061,123.983,608.061"/>
	<path clip-path="url(#SVGID_4_)" fill="#CFA151" d="M830.723,62.461c-8.742,2.274-63.391,17.095-135.649,50
		c-72.49,33.009-178.029,91.488-269.168,182.618c-91.148,91.149-149.631,196.706-182.644,269.206
		c-32.899,72.254-47.712,126.879-49.986,135.617c8.738-2.273,63.39-17.092,135.658-50c72.488-33.01,178.028-91.488,269.158-182.623
		c91.141-91.139,149.621-196.678,182.63-269.166C813.629,125.852,828.449,71.204,830.723,62.461 M191.212,701.967l0.295-1.203
		c0.141-0.576,14.567-58.428,50.391-137.102c33.061-72.613,91.641-178.335,182.947-269.643
		c91.305-91.301,197.03-149.878,269.64-182.939c78.675-35.823,136.523-50.246,137.1-50.387l1.203-0.297l-0.296,1.204
		c-0.141,0.575-14.564,58.425-50.388,137.1c-33.063,72.612-91.642,178.333-182.951,269.64
		c-91.299,91.303-197.02,149.881-269.632,182.943c-78.679,35.822-136.53,50.246-137.106,50.387L191.212,701.967z"/>
	<path clip-path="url(#SVGID_4_)" fill="#CFA151" d="M737.372-9.169c-7.852,4.457-56.802,32.916-118.087,83.405
		c-61.476,50.643-148.284,134.444-212.73,246.058c-64.442,111.622-93.612,228.702-106.736,307.267
		c-13.083,78.314-13.255,134.938-13.19,143.971c7.851-4.455,56.807-32.918,118.094-83.408
		c61.476-50.645,148.285-134.445,212.72-246.059c64.455-111.637,93.626-228.73,106.748-307.301
		C737.27,56.457,737.438-0.139,737.372-9.169 M285.168,774.063l-0.025-1.24c-0.013-0.594-1.053-60.205,13.189-145.471
		c13.143-78.695,42.361-195.979,106.923-307.806C469.821,207.722,556.78,123.781,618.361,73.053
		C685.081,18.09,737.227-10.814,737.745-11.1l1.085-0.597l0.027,1.238c0.011,0.593,1.054,60.204-13.186,145.468
		c-13.144,78.694-42.363,195.976-106.931,307.804c-64.555,111.822-151.512,195.766-213.094,246.496
		c-66.725,54.963-118.874,83.869-119.392,84.154L285.168,774.063z"/>
	<path clip-path="url(#SVGID_4_)" fill="#CFA151" d="M628.66-54.2c-6.435,6.341-46.352,46.498-92.479,111.125
		C489.911,121.757,427.749,225.169,394.39,349.66c-18.412,68.716-37.448,180.781-23.577,324.422
		c7.634,79.037,22.123,133.777,24.523,142.48c6.43-6.336,46.351-46.498,92.483-111.131
		c46.274-64.832,108.438-168.246,141.789-292.736c18.413-68.715,37.45-180.78,23.578-324.418
		C645.551,9.245,631.062-45.494,628.66-54.2 M394.579,819.383l-0.346-1.189c-0.164-0.57-16.597-57.881-24.91-143.93
		c-7.671-79.416-9.801-200.266,23.616-324.994c18.449-68.841,58.066-175.597,142.045-293.247
		c50.224-70.359,93.111-111.774,93.536-112.185l0.896-0.858l0.346,1.191c0.164,0.567,16.598,57.878,24.913,143.924
		c7.674,79.414,9.804,200.26-23.616,324.991c-18.446,68.84-58.06,175.596-142.042,293.248
		c-50.224,70.361-93.115,111.781-93.542,112.189L394.579,819.383z"/>
	<path clip-path="url(#SVGID_4_)" fill="#CFA151" d="M286.63-9.172c-0.066,9.027,0.104,65.652,13.186,143.973
		c13.122,78.561,42.29,195.643,106.734,307.262c64.443,111.619,151.254,195.42,212.729,246.066
		c61.286,50.488,110.239,78.947,118.09,83.406c0.066-9.027-0.103-65.65-13.186-143.973C711.06,549,681.89,431.918,617.444,320.301
		C552.996,208.67,466.175,124.86,404.689,74.211C343.414,23.733,294.481-4.714,286.63-9.172 M738.831,774.063l-1.088-0.596
		c-0.518-0.285-52.665-29.189-119.389-84.156c-61.582-50.73-148.542-134.674-213.104-246.498
		c-64.562-111.828-93.779-229.108-106.92-307.804c-14.24-85.267-13.199-144.878-13.186-145.471l0.027-1.239l1.085,0.598
		c0.519,0.286,52.664,29.19,119.387,84.154c61.581,50.73,148.54,134.675,213.1,246.499
		c64.565,111.827,93.783,229.106,106.926,307.804c14.24,85.266,13.197,144.877,13.187,145.471L738.831,774.063z"/>
	<path clip-path="url(#SVGID_4_)" fill="#CFA151" d="M121.645,155.809c4.453,7.847,32.912,56.802,83.406,118.092
		c50.646,61.475,134.446,148.285,246.066,212.728c84.346,48.695,181.316,83.475,288.216,103.373
		c82.563,15.365,143.861,16.559,160.683,16.559c0.974,0,1.755-0.002,2.339-0.008c-4.452-7.846-32.913-56.801-83.408-118.09
		c-50.649-61.477-134.451-148.285-246.071-212.729c-84.347-48.697-181.314-83.476-288.213-103.374
		c-82.562-15.366-143.858-16.558-160.679-16.558C123.009,155.802,122.228,155.804,121.645,155.809 M900.016,608.063
		c-16.853,0-78.268-1.197-160.957-16.584c-107.067-19.93-204.197-54.77-288.692-103.551
		C338.54,423.365,254.597,336.406,203.869,274.826c-54.966-66.723-83.871-118.87-84.156-119.388l-0.598-1.087l1.239-0.026
		c0,0,1.245-0.025,3.629-0.025c16.852,0,78.266,1.196,160.953,16.585c107.067,19.929,204.196,54.768,288.688,103.551
		C685.453,339,769.398,425.957,820.127,487.539c54.968,66.721,83.874,118.867,84.158,119.385l0.598,1.088l-1.238,0.025
		C903.645,608.037,902.399,608.063,900.016,608.063"/>
	<path clip-path="url(#SVGID_4_)" fill="#CFA151" d="M61.261,381.178c7.783,4.571,56.906,32.736,131.274,60.564
		c74.598,27.92,190.576,61.195,319.462,61.195c128.888,0,244.867-33.277,319.467-61.195c74.364-27.827,123.485-55.99,131.274-60.564
		c-7.789-4.573-57.705-29.472-131.274-59.339c-81.757-33.19-190.579-59.967-319.467-59.967h-0.009
		c-128.89,0-239.379,26.236-319.485,59.983C119.34,352.677,69.046,376.606,61.261,381.178 M511.997,504.439
		c-129.125,0-245.3-33.338-320.023-61.303c-80.963-30.302-132.065-61.01-132.573-61.316l-1.062-0.643l1.062-0.642
		c0.508-0.306,51.614-31.014,132.576-61.313c74.722-27.964,190.896-61.3,320.011-61.3c129.135,0,245.313,33.336,320.037,61.3
		c80.963,30.299,132.065,61.007,132.574,61.313l1.063,0.642l-1.063,0.643c-0.509,0.306-51.611,31.012-132.574,61.316
		C757.302,471.102,641.123,504.439,511.997,504.439"/>
	<path clip-path="url(#SVGID_4_)" fill="#CFA151" d="M121.646,606.553c0.585,0.006,1.367,0.008,2.343,0.008
		c16.823,0,78.131-1.193,160.705-16.564c106.887-19.895,203.844-54.674,288.181-103.363
		c111.621-64.447,195.422-151.257,246.07-212.732c50.492-61.29,78.952-110.244,83.405-118.09c-0.582-0.005-1.362-0.008-2.339-0.008
		c-16.821,0-78.123,1.193-160.692,16.562c-106.895,19.898-203.86,54.677-288.202,103.372
		c-111.632,64.449-195.441,151.269-246.09,212.755C154.547,549.771,126.101,598.707,121.646,606.553 M123.99,608.063
		c-2.392,0-3.632-0.025-3.632-0.025l-1.238-0.025l0.596-1.088c0.286-0.518,29.191-52.664,84.156-119.387
		C254.599,425.957,338.542,339,450.368,274.439c84.49-48.781,181.615-83.62,288.679-103.548
		c82.695-15.393,144.113-16.589,160.966-16.589c2.389,0,3.628,0.025,3.628,0.025l1.239,0.025l-0.595,1.087
		c-0.287,0.519-29.19,52.664-84.158,119.387c-50.729,61.579-134.674,148.54-246.502,213.106
		c-84.484,48.775-181.602,83.613-288.656,103.541C202.27,606.865,140.846,608.063,123.99,608.063"/>
	<path clip-path="url(#SVGID_4_)" fill="#CFA151" d="M737.367-9.169c-7.852,4.457-56.804,32.919-118.088,83.409
		c-61.475,50.646-148.283,134.449-212.729,246.067C342.102,431.938,312.93,549.029,299.811,627.6
		c-13.076,78.307-13.244,134.902-13.178,143.932c7.85-4.455,56.802-32.914,118.088-83.402
		c61.476-50.645,148.284-134.443,212.726-246.063c64.449-111.636,93.62-228.729,106.741-307.301
		C737.265,56.457,737.432-0.139,737.367-9.169 M285.173,774.063l-0.025-1.24c-0.013-0.594-1.056-60.205,13.184-145.469
		c13.14-78.695,42.357-195.973,106.92-307.797C469.816,207.73,556.775,123.786,618.354,73.056
		C685.078,18.09,737.222-10.812,737.74-11.1l1.086-0.597l0.026,1.238c0.012,0.593,1.055,60.204-13.186,145.47
		c-13.142,78.695-42.358,195.978-106.923,307.806c-64.561,111.824-151.518,195.768-213.098,246.494
		c-66.722,54.965-118.868,83.867-119.386,84.152L285.173,774.063z"/>
	<path clip-path="url(#SVGID_4_)" fill="#CFA151" d="M301.859,591.941h417.442V176.118H301.859V591.941z M720.919,593.561H300.241
		V174.5h420.678V593.561z"/>
	<path clip-path="url(#SVGID_4_)" fill="#CFA151" d="M258.224,234.503l107.377,400.731l400.727-107.375L658.95,127.128
		L258.224,234.503z M364.539,637.072l-0.194-0.725L256.386,233.441l0.724-0.194L660.012,125.29l0.193,0.723l107.96,402.909
		l-0.725,0.193L364.539,637.072z"/>
	<path clip-path="url(#SVGID_4_)" fill="#CFA151" d="M228.917,305.255l207.433,359.286l359.282-207.434L588.2,97.821
		L228.917,305.255z M435.801,666.59l-0.375-0.648L226.868,304.708l0.648-0.376L588.747,95.771l0.376,0.65l208.556,361.234
		l-0.649,0.375L435.801,666.59z"/>
	<path clip-path="url(#SVGID_4_)" fill="#CFA151" d="M218.918,381.179l293.357,293.356l293.35-293.356L512.273,87.826
		L218.918,381.179z M512.275,676.658L216.796,381.179L512.273,85.704l295.472,295.475L512.275,676.658z"/>
	<path clip-path="url(#SVGID_4_)" fill="#CFA151" d="M228.914,457.107l359.289,207.434l207.425-359.286L436.347,97.822
		L228.914,457.107z M588.75,666.59l-0.648-0.373L226.865,457.654l0.374-0.648L435.797,95.772l0.65,0.374l361.229,208.559
		l-0.374,0.651L588.75,666.59z"/>
	<path clip-path="url(#SVGID_4_)" fill="#CFA151" d="M258.217,527.859l400.737,107.375l107.368-400.733L365.597,127.129
		L258.217,527.859z M660.015,637.072l-0.726-0.193l-402.91-107.957l0.193-0.727l107.963-402.904l0.726,0.193l402.897,107.957
		l-0.193,0.724L660.015,637.072z"/>
	<path clip-path="url(#SVGID_4_)" fill="#CFA151" d="M363.343,530.459h292.856V237.602H363.343V530.459z M657.818,530.459H361.725
		V235.984h296.093V530.459z"/>
	<path clip-path="url(#SVGID_4_)" fill="#CFA151" d="M191.836,701.967h637.489V64.476H191.836V701.967z M830.943,703.584H191.836
		V62.859h639.107V703.584z"/>
	<path clip-path="url(#SVGID_4_)" fill="#CFA151" d="M123.142,156.512L287.61,770.318L901.413,605.85L736.944-7.955L123.142,156.512
		z M286.548,772.156l-0.194-0.727l-165.05-615.978l0.725-0.194L738.004-9.792l0.196,0.726L903.249,606.91l-0.724,0.195
		L286.548,772.156z"/>
	<path clip-path="url(#SVGID_4_)" fill="#CFA151" d="M78.249,264.887l317.73,550.318L946.3,497.479L628.571-52.841L78.249,264.887z
		 M395.431,817.254l-0.375-0.648L76.201,264.337l0.649-0.376L629.12-54.892l319.23,552.919l-0.651,0.375L395.431,817.254z"/>
	<path clip-path="url(#SVGID_4_)" fill="#CFA151" d="M62.938,381.18l449.336,449.335L961.61,381.18L512.273-68.154L62.938,381.18z
		 M512.273,832.637L60.815,381.18L512.273-70.276L963.731,381.18L512.273,832.637z"/>
	<path clip-path="url(#SVGID_4_)" fill="#CFA151" d="M78.247,497.482l550.322,317.723L946.3,264.888L395.976-52.841L78.247,497.482z
		 M629.117,817.254l-0.649-0.375L76.2,498.029l0.374-0.648L395.428-54.892l0.649,0.375L948.351,264.34l-0.377,0.649L629.117,817.254
		z"/>
	<path clip-path="url(#SVGID_4_)" fill="#CFA151" d="M123.137,605.855l613.8,164.463l164.477-613.802L287.603-7.957L123.137,605.855
		z M737.998,772.156l-0.727-0.195L121.299,606.914l0.193-0.725L286.543-9.793l0.724,0.194l615.982,165.056l-0.193,0.725
		L737.998,772.156z"/>
	<path clip-path="url(#SVGID_4_)" fill="#CFA151" d="M191.836,64.476v634.436l636.574,0.51l1.137-634.946H191.836z M191.836,700.412
		V62.858h639.107v-0.543l-0.009,639.652h-0.751L191.836,700.412z"/>
	<path clip-path="url(#SVGID_4_)" fill="#CFA151" d="M123.142,156.511L287.61,770.318L901.406,605.85L736.944-7.955L123.142,156.511
		z M286.548,772.156l-0.194-0.727l-165.05-615.981l0.725-0.194L738.004-9.792l0.196,0.726L903.243,606.91l-0.725,0.195
		L286.548,772.156z"/>
	<path clip-path="url(#SVGID_4_)" fill="#CFA151" d="M78.249,264.885l317.73,550.322l550.314-317.723L628.574-52.841L78.249,264.885
		z M395.431,817.256l-0.375-0.65L76.201,264.336l0.649-0.375L629.125-54.892l319.216,552.923l-0.648,0.375L395.431,817.256z"/>
	<path clip-path="url(#SVGID_4_)" fill="#CFA151" d="M423.209,468.975h174.743V297.468H423.209V468.975z M599.57,468.975H421.591
		V295.85H599.57V468.975z"/>
	<path clip-path="url(#SVGID_4_)" fill="#CFA151" d="M406.817,319.802l44.571,166.351l166.346-44.574l-44.568-166.347
		L406.817,319.802z M450.327,487.988l-0.196-0.723L404.979,318.74l0.724-0.195l168.524-45.153l0.194,0.725l45.15,168.522
		l-0.724,0.195L450.327,487.988z"/>
	<path clip-path="url(#SVGID_4_)" fill="#CFA151" d="M394.648,349.168l86.106,149.146l149.149-86.107l-86.108-149.146
		L394.648,349.168z M480.208,500.363L392.6,348.62l151.743-87.607l87.608,151.741L480.208,500.363z"/>
	<path clip-path="url(#SVGID_4_)" fill="#CFA151" d="M390.5,380.686l121.774,121.781l121.771-121.776L512.273,258.913L390.5,380.686
		z M512.273,504.59L388.377,380.686l123.896-123.895l123.892,123.9L512.273,504.59z"/>
	<path clip-path="url(#SVGID_4_)" fill="#CFA151" d="M394.645,412.202l149.145,86.116l86.108-149.145l-149.144-86.112
		L394.645,412.202z M544.338,500.367l-151.742-87.616l87.61-151.738l151.741,87.612L544.338,500.367z"/>
	<path clip-path="url(#SVGID_4_)" fill="#CFA151" d="M406.805,442.066l166.355,44.574l44.569-166.346L451.381,275.72
		L406.805,442.066z M574.221,488.48l-0.726-0.195l-168.527-45.158l0.194-0.727l45.158-168.519l0.726,0.194l168.521,45.159
		l-0.195,0.725L574.221,488.48z"/>
</g>
<g>
	<defs>
		<rect id="SVGID_5_" y="35.986" width="1024" height="768"/>
	</defs>
	<clipPath id="SVGID_6_">
		<use xlink:href="#SVGID_5_"  overflow="visible"/>
	</clipPath>
	<path clip-path="url(#SVGID_6_)" fill="none" stroke="#CFA151" stroke-width="1.618" stroke-miterlimit="10" d="M512,590.605
		c-115.663,0-209.424-93.762-209.424-209.425c0-115.66,93.761-209.423,209.424-209.423c115.66,0,209.423,93.763,209.423,209.423
		C721.423,496.844,627.66,590.605,512,590.605z M512,114.795c-147.122,0-266.386,119.264-266.386,266.385
		c0,147.123,119.264,266.388,266.386,266.388c147.121,0,266.386-119.266,266.386-266.388
		C778.386,234.059,659.121,114.795,512,114.795z"/>
	<path clip-path="url(#SVGID_6_)" d="M611.36,483.779c0.044-0.154,0.563-0.205,0.547-0.068c-0.486,4.145-0.413,8.135-2.54,8.119
		c-6.045-0.051-2.889-0.154-10.585-0.209l-10.237,0.275c0,0-0.055-0.512,0.092-0.527c0.819-0.1,2.26-0.193,2.26-0.193
		c1.174-0.135,1.629-0.576,2.094-1.408c0.264-0.473,0.425-1.467,0.425-3.189l-0.015-19.977c0-1.881-0.192-2.35-0.467-2.879
		c-0.375-0.725-0.713-0.803-1.544-1.033c0,0-2.246-0.422-2.753-0.471c-0.134-0.014-0.283-0.539-0.148-0.52
		c2.799,0.361,5.414,0.508,6.794,0.508c1.515,0,5.396-0.262,6.864-0.508c0.135-0.023-0.013,0.5-0.146,0.52
		c-1.802,0.256-2.118,0.26-2.717,0.447c-0.674,0.213-1.069,0.377-1.573,1.057c-0.308,0.412-0.501,0.998-0.562,2.879l0.07,19.934
		c0,0.885,0.02,1.953,0.438,2.572c0.265,0.391,0.2,0.344,0.562,0.652c0.574,0.492,1.751,0.662,3.125,0.668l1.771,0.021
		c1.961,0,4.018-0.094,4.81-0.436c0.792-0.34,1.632-1.098,2.095-2.078C610.521,486.875,610.966,485.176,611.36,483.779"/>
	<path clip-path="url(#SVGID_6_)" d="M448.106,491.805c-0.497-0.049-1.02-0.088-1.564-0.119c-0.545-0.031-1.096-0.055-1.66-0.068
		c-0.559-0.016-1.074-0.023-1.539-0.023c-1.341,0-2.477,0.023-3.409,0.068c-0.934,0.049-1.9,0.135-2.897,0.258
		c-0.126,0.031-0.172-0.047-0.14-0.234c0.031-0.186,0.077-0.295,0.14-0.326c0.903-0.096,1.617-0.203,2.15-0.326
		c0.529-0.125,0.925-0.43,1.19-0.914c0.263-0.479,0.435-1.213,0.513-2.191c0.079-0.984,0.117-2.359,0.117-4.133v-6.73H423.49v6.73
		c0,1.711,0.031,3.055,0.094,4.037c0.061,0.98,0.218,1.721,0.467,2.219s0.645,0.828,1.19,0.982c0.547,0.154,1.284,0.264,2.22,0.326
		c0.062,0.031,0.107,0.141,0.141,0.326c0.029,0.188-0.034,0.266-0.188,0.234c-0.717-0.094-1.519-0.17-2.405-0.234
		c-0.886-0.064-1.831-0.092-2.827-0.092c-1.309,0-2.57,0.023-3.783,0.068c-1.217,0.049-2.321,0.135-3.316,0.258
		c-0.125,0.031-0.174-0.047-0.142-0.234c0.033-0.186,0.079-0.295,0.142-0.326c1.182-0.123,2.093-0.248,2.731-0.373
		c0.64-0.125,1.113-0.422,1.423-0.889c0.314-0.465,0.493-1.186,0.541-2.148c0.046-0.965,0.069-2.35,0.069-4.154v-14.016
		c0-1.807-0.023-3.201-0.069-4.184c-0.048-0.979-0.227-1.695-0.541-2.148c-0.31-0.449-0.783-0.738-1.423-0.861
		c-0.638-0.125-1.549-0.266-2.731-0.42c-0.063,0-0.109-0.094-0.142-0.283c-0.032-0.186,0.017-0.262,0.142-0.232
		c0.995,0.125,2.099,0.209,3.316,0.256c1.213,0.051,2.474,0.07,3.783,0.07c0.996,0,1.941-0.031,2.827-0.094
		c0.886-0.061,1.688-0.139,2.405-0.232c0.154-0.029,0.217,0.047,0.188,0.232c-0.034,0.189-0.079,0.283-0.141,0.283
		c-0.936,0.092-1.673,0.217-2.22,0.373c-0.545,0.154-0.941,0.482-1.19,0.98c-0.249,0.496-0.406,1.238-0.467,2.219
		c-0.063,0.982-0.094,2.326-0.094,4.041v6.303h17.517v-6.303c0-1.777-0.038-3.152-0.117-4.133c-0.078-0.984-0.25-1.717-0.513-2.199
		c-0.265-0.48-0.661-0.793-1.19-0.934c-0.533-0.141-1.247-0.256-2.15-0.348c-0.063,0-0.109-0.094-0.14-0.283
		c-0.032-0.186,0.014-0.262,0.14-0.232c0.997,0.125,1.963,0.209,2.897,0.256c0.932,0.051,2.068,0.07,3.409,0.07
		c0.465,0,0.98-0.006,1.539-0.02c0.564-0.02,1.115-0.041,1.66-0.074c0.544-0.029,1.067-0.061,1.564-0.092
		c0.499-0.031,0.934-0.08,1.308-0.141c0.125-0.029,0.173,0.047,0.14,0.232c-0.03,0.189-0.075,0.283-0.14,0.283
		c-1.215,0.092-2.148,0.217-2.802,0.373c-0.653,0.154-1.12,0.482-1.401,0.98c-0.28,0.496-0.444,1.227-0.49,2.195
		c-0.049,0.967-0.072,2.318-0.072,4.064v14.016c0,1.74,0.023,3.098,0.072,4.059c0.046,0.967,0.21,1.699,0.49,2.197
		c0.281,0.498,0.748,0.816,1.401,0.957c0.654,0.141,1.587,0.256,2.802,0.352c0.065,0.031,0.11,0.141,0.14,0.326
		c0.033,0.188-0.015,0.266-0.14,0.234C449.04,491.889,448.605,491.85,448.106,491.805"/>
	<path clip-path="url(#SVGID_6_)" d="M491.411,471.248c-0.781-1.887-1.799-3.465-3.062-4.742c-1.261-1.271-2.694-2.229-4.295-2.873
		c-1.607-0.645-3.218-0.969-4.835-0.969c-1.744,0-3.358,0.293-4.837,0.877c-1.479,0.584-2.755,1.439-3.831,2.564
		c-1.073,1.123-1.913,2.494-2.523,4.111c-0.604,1.617-0.908,3.461-0.908,5.527c0,2.488,0.389,4.672,1.167,6.561
		c0.776,1.889,1.799,3.471,3.06,4.742c1.261,1.273,2.685,2.232,4.273,2.875c1.588,0.645,3.208,0.967,4.86,0.967
		c1.744,0,3.354-0.291,4.835-0.875c1.477-0.584,2.755-1.438,3.829-2.561c1.073-1.125,1.913-2.496,2.523-4.115
		c0.605-1.615,0.911-3.461,0.911-5.525C492.578,475.324,492.186,473.137,491.411,471.248 M495.1,481.855
		c-0.844,1.857-2.009,3.537-3.504,5.035c-1.494,1.5-3.277,2.709-5.349,3.639c-2.071,0.93-4.353,1.393-6.841,1.393
		c-2.401,0-4.58-0.402-6.54-1.213c-1.963-0.809-3.652-1.895-5.068-3.256c-1.418-1.367-2.516-2.93-3.295-4.699
		c-0.777-1.768-1.167-3.609-1.167-5.527c0-1.824,0.411-3.67,1.238-5.527c0.825-1.857,1.984-3.535,3.48-5.033
		c1.494-1.498,3.276-2.711,5.348-3.641c2.07-0.928,4.351-1.395,6.844-1.395c2.396,0,4.585,0.402,6.562,1.215
		c1.979,0.809,3.675,1.889,5.091,3.236s2.514,2.904,3.296,4.672c0.777,1.77,1.166,3.613,1.166,5.529
		C496.36,478.143,495.939,479.998,495.1,481.855"/>
	<path clip-path="url(#SVGID_6_)" d="M574.691,488.877c-0.172,0.887-0.335,1.58-0.492,2.078c-0.124,0.373-0.256,0.605-0.396,0.699
		c-0.141,0.094-0.382,0.141-0.724,0.141c-0.842,0-1.957-0.039-3.341-0.117c-1.387-0.08-2.918-0.117-4.603-0.117
		c-2.305,0-4.553,0.025-6.749,0.07c-2.194,0.047-4.132,0.133-5.813,0.256c-0.157,0.033-0.22-0.045-0.188-0.232
		c0.031-0.186,0.077-0.295,0.14-0.326c1.188-0.123,2.104-0.248,2.757-0.373c0.654-0.125,1.127-0.422,1.425-0.887
		c0.295-0.469,0.474-1.182,0.538-2.146c0.062-0.963,0.09-2.346,0.09-4.152v-13.988c0-1.805-0.028-3.195-0.09-4.174
		c-0.064-0.98-0.243-1.693-0.538-2.145c-0.298-0.451-0.771-0.74-1.425-0.863c-0.653-0.125-1.569-0.264-2.757-0.422
		c-0.063,0-0.108-0.094-0.14-0.279s0.031-0.262,0.188-0.232c1.682,0.125,3.58,0.209,5.698,0.26c2.117,0.043,4.344,0.068,6.68,0.068
		c1.681,0,3.276-0.033,4.787-0.096c1.51-0.061,2.889-0.139,4.135-0.232c-0.188,0.637-0.28,1.461-0.28,2.475
		c0,0.252,0.009,0.561,0.023,0.936c0.014,0.373,0.039,0.652,0.069,0.842c0,0.061-0.093,0.092-0.279,0.092
		c-0.188,0-0.281-0.031-0.281-0.092c-0.094-0.529-0.249-0.975-0.467-1.332c-0.22-0.359-0.585-0.645-1.097-0.865
		c-0.514-0.217-1.23-0.373-2.15-0.467c-0.92-0.092-2.141-0.141-3.668-0.141h-4.482c-0.188,1.186-0.28,3.318-0.28,6.398v6.17h4.859
		c1.275,0,2.247-0.033,2.918-0.096s1.144-0.164,1.423-0.303c0.281-0.145,0.454-0.318,0.515-0.537
		c0.063-0.219,0.126-0.484,0.189-0.795c0.028-0.033,0.138-0.057,0.324-0.07c0.188-0.016,0.267,0.008,0.234,0.07
		c-0.092,0.34-0.172,0.787-0.234,1.332c-0.061,0.543-0.093,1.082-0.093,1.609c0,0.25,0.006,0.578,0.025,0.982
		c0.015,0.404,0.038,0.701,0.067,0.887c0.031,0.064-0.047,0.096-0.232,0.096c-0.189,0-0.281-0.031-0.281-0.096
		c-0.061-0.373-0.146-0.691-0.255-0.957c-0.109-0.264-0.329-0.49-0.656-0.678c-0.327-0.186-0.792-0.318-1.401-0.398
		c-0.605-0.074-1.456-0.115-2.543-0.115h-4.859v6.961c0,1.557,0.054,2.785,0.163,3.689c0.108,0.904,0.28,1.588,0.513,2.057
		c0.234,0.467,0.547,0.762,0.937,0.885c0.39,0.127,0.849,0.188,1.376,0.188h2.385c1.773,0,3.169-0.053,4.179-0.162
		c1.012-0.109,1.783-0.301,2.313-0.582c0.528-0.281,0.901-0.668,1.122-1.17c0.216-0.492,0.402-1.133,0.559-1.906
		c0.03-0.033,0.132-0.043,0.304-0.027s0.257,0.055,0.257,0.117C574.993,487.252,574.86,487.992,574.691,488.877"/>
	<path clip-path="url(#SVGID_6_)" d="M537.502,463.408c-0.08,0.594-0.118,1.277-0.118,2.051c0,0.355,0.009,0.768,0.023,1.229
		c0.015,0.457,0.055,0.84,0.118,1.135c0,0.061-0.093,0.082-0.281,0.066c-0.188-0.014-0.279-0.037-0.279-0.066
		c-0.094-0.506-0.236-0.949-0.421-1.338c-0.186-0.387-0.532-0.713-1.028-0.979c-0.499-0.27-1.2-0.469-2.101-0.604
		c-0.905-0.135-2.12-0.199-3.646-0.199h-4.95v19.389c0,1.668,0.023,2.959,0.069,3.879s0.211,1.621,0.49,2.094
		c0.281,0.477,0.714,0.781,1.309,0.916c0.592,0.135,1.432,0.246,2.521,0.334c0.063,0.031,0.109,0.131,0.143,0.313
		c0.031,0.178-0.033,0.25-0.188,0.221c-0.714-0.088-1.586-0.162-2.615-0.221c-1.027-0.063-2.022-0.088-2.988-0.088
		c-1.341,0-2.548,0.02-3.619,0.064c-1.075,0.045-2.112,0.127-3.107,0.244c-0.126,0.029-0.172-0.043-0.142-0.221
		c0.032-0.182,0.078-0.281,0.142-0.313c1.026-0.088,1.837-0.199,2.428-0.334s1.029-0.426,1.31-0.871s0.45-1.127,0.513-2.049
		c0.063-0.924,0.094-2.244,0.094-3.969v-19.389h-5.138c-1.464,0-2.648,0.064-3.551,0.199c-0.905,0.135-1.619,0.326-2.149,0.58
		c-0.53,0.252-0.911,0.572-1.144,0.959c-0.232,0.387-0.415,0.848-0.538,1.381c0,0.029-0.092,0.053-0.281,0.066
		c-0.185,0.016-0.264-0.006-0.232-0.066c0.094-0.477,0.155-1.055,0.186-1.736c0.031-0.686,0.046-1.352,0.046-2.006
		c0-0.805-0.077-1.576-0.232-2.32c0-0.059,0.094-0.082,0.28-0.068c0.184,0.018,0.281,0.041,0.281,0.068
		c0.09,0.387,0.209,0.691,0.35,0.914c0.14,0.221,0.444,0.395,0.909,0.512c0.469,0.121,1.177,0.193,2.126,0.223
		c0.949,0.031,2.267,0.045,3.949,0.045h13.731c1.683,0,3.007-0.014,3.973-0.045c0.963-0.029,1.695-0.102,2.195-0.223
		c0.497-0.117,0.824-0.291,0.979-0.512c0.155-0.223,0.281-0.527,0.373-0.914c0-0.027,0.094-0.051,0.281-0.068
		c0.186-0.014,0.264,0.01,0.234,0.068C537.682,462.264,537.581,462.813,537.502,463.408"/>
</g>
</svg>
